HIERARCHY
ROOT pelvis
{
  OFFSET 0 100 0
  CHANNELS 6 Xposition Yposition Zposition Zrotation Xrotation Yrotation
  JOINT pelvis_right_femur
  {
    OFFSET -10.78128 -3.44521 -0.5502486
    CHANNELS 3 Zrotation Xrotation Yrotation
    JOINT right_femur_tibia
    {
      OFFSET -0.8047443 -44.0398 -0.1307829
      CHANNELS 3 Zrotation Xrotation Yrotation
      JOINT right_tibia_foot
      {
        OFFSET 3.006224 -47.83518 -5
        CHANNELS 3 Zrotation Xrotation Yrotation
        End Site
        {
          OFFSET 0 -5 15
        }
      }
    }
  }
  JOINT pelvis_left_femur
  {
    OFFSET 10.78128 -3.44521 -0.5502486
    CHANNELS 3 Zrotation Xrotation Yrotation
    JOINT left_femur_tibia
    {
      OFFSET 0.8047443 -44.0398 -0.1307829
      CHANNELS 3 Zrotation Xrotation Yrotation
      JOINT left_tibia_foot
      {
        OFFSET -4.370144 -48.10324 -4.275266
        CHANNELS 3 Zrotation Xrotation Yrotation
        End Site
        {
          OFFSET 0 -5 15
        }
      }
    }
  }
  JOINT pelvis_spine1
  {
    OFFSET 0 6.468898 -3.129235
    CHANNELS 3 Zrotation Xrotation Yrotation
    JOINT spine1
    {
      OFFSET 0 23.15396 4.99043
      CHANNELS 3 Zrotation Xrotation Yrotation
      JOINT spine2
      {
        OFFSET 0 20.79997 -5.064912
        CHANNELS 3 Zrotation Xrotation Yrotation
        JOINT neck
        {
          OFFSET 0 14.38658 9.616178
          CHANNELS 3 Zrotation Xrotation Yrotation
          End Site
          {
            OFFSET 0 20 0
          }
        }
      }
      JOINT right_manubrium
      {
        OFFSET -5.722621 16.35077 3.967754
        CHANNELS 3 Zrotation Xrotation Yrotation
        JOINT right_clavicle
        {
          OFFSET -13.16364 1.694482 -4.693211
          CHANNELS 3 Zrotation Xrotation Yrotation
          JOINT right_humerus
          {
            OFFSET -28.5034 -0.3100689 -2.792744
            CHANNELS 3 Zrotation Xrotation Yrotation
            JOINT right_radius
            {
              OFFSET -25.15693 0.02248979 -1.271978
              CHANNELS 3 Zrotation Xrotation Yrotation
              End Site
              {
                OFFSET -15 0 0
              }
            }
          }
        }
      }
      JOINT left_manubrium
      {
        OFFSET 5.722621 16.35077 3.967754
        CHANNELS 3 Zrotation Xrotation Yrotation
        JOINT left_clavicle
        {
          OFFSET 13.16364 1.694482 -4.693211
          CHANNELS 3 Zrotation Xrotation Yrotation
          JOINT left_humerus
          {
            OFFSET 29.39168 -1.063119 -2.237045
            CHANNELS 3 Zrotation Xrotation Yrotation
            JOINT left_radius
            {
              OFFSET 24.59957 -0.9528479 0.9047498
              CHANNELS 3 Zrotation Xrotation Yrotation
              End Site
              {
                OFFSET 15 -0 -0
              }
            }
          }
        }
      }
    }
  }
}
MOTION
Frames: 23
Frame Time: 0.0416666666667
-1777.945 90.50315 1698.19 -5.23518 -2.143725 -126.8096 -1.760156 -8.155112 -0.7115709 -0 31.99175 -0 -15.20309 -6.060496 2.683645 -5.348933 -7.043155 -7.595043 -0 17.93456 -0 8.178659 -0.1441844 11.59152 -3.457235 -4.547532 9.43419 -1.50219 15.89445 -6.548876 -2.899163 15.33864 6.746787 14.79545 -7.970427 -6.974306 14.00826 -22.11132 12.99859 74.1536 37.77939 -12.34437 -0 0 30.86289 -16.63315 5.450302 10.219 9.090717 -27.54343 -9.621153 -88.45112 0.07381441 28.20486 0 0 -19.7441 13.64319 -1.547396 0.08061768
-1783.676 90.52921 1696.035 -5.244908 -2.119759 -127.0711 -1.760156 -8.155112 -0.711571 -0 31.99175 -0 -15.20309 -6.060496 2.683645 -5.348933 -7.043155 -7.595043 -0 17.93456 -0 8.178659 -0.1441844 11.59152 -3.457235 -4.547532 9.43419 -1.50219 15.89445 -6.548876 -2.899163 15.33864 6.746787 14.79545 -7.970427 -6.974306 14.00826 -22.11132 12.99859 74.1536 37.77939 -12.34437 -0 0 30.86289 -16.63315 5.450302 10.219 9.090717 -27.54343 -9.621153 -88.45112 0.0738144 28.20486 0 0 -19.7441 13.64319 -1.547396 0.08061765
-1789.396 90.55528 1693.854 -5.254525 -2.095748 -127.3326 -1.760156 -8.155112 -0.711571 -0 31.99175 -0 -15.20309 -6.060496 2.683645 -5.348933 -7.043155 -7.595043 -0 17.93456 -0 8.178659 -0.1441844 11.59152 -3.457235 -4.547532 9.43419 -1.50219 15.89445 -6.548876 -2.899163 15.33864 6.746787 14.79545 -7.970427 -6.974306 14.00826 -22.11132 12.99859 74.1536 37.77939 -12.34437 -0 0 30.86289 -16.63315 5.450302 10.219 9.090717 -27.54343 -9.621153 -88.45112 0.07381439 28.20486 0 0 -19.7441 13.64319 -1.547396 0.08061763
-1795.107 90.58135 1691.646 -5.264033 -2.071694 -127.5941 -1.760156 -8.155112 -0.711571 -0 31.99175 -0 -15.20309 -6.060496 2.683645 -5.348933 -7.043155 -7.595043 -0 17.93456 -0 8.178659 -0.1441844 11.59152 -3.457235 -4.547532 9.43419 -1.50219 15.89445 -6.548876 -2.899163 15.33864 6.746787 14.79545 -7.970427 -6.974306 14.00826 -22.11132 12.99859 74.1536 37.77939 -12.34437 -0 0 30.86289 -16.63315 5.450302 10.219 9.090717 -27.54343 -9.621153 -88.45112 0.07381439 28.20486 0 0 -19.7441 13.64319 -1.547396 0.08061761
-1800.807 90.60742 1689.413 -5.273431 -2.047596 -127.8556 -1.760156 -8.155112 -0.711571 -0 31.99175 -0 -15.20309 -6.060496 2.683645 -5.348933 -7.043155 -7.595043 -0 17.93456 -0 8.178659 -0.1441845 11.59152 -3.457235 -4.547532 9.43419 -1.50219 15.89445 -6.548876 -2.899163 15.33864 6.746787 14.79545 -7.970427 -6.974306 14.00826 -22.11132 12.99859 74.1536 37.77939 -12.34437 -0 0 30.86289 -16.63315 5.450302 10.219 9.090717 -27.54343 -9.621153 -88.45112 0.07381438 28.20486 0 0 -19.7441 13.64319 -1.547396 0.0806176
-1806.497 90.63349 1687.153 -5.282718 -2.023456 -128.117 -1.760156 -8.155112 -0.711571 -0 31.99175 -0 -15.20309 -6.060496 2.683645 -5.348933 -7.043155 -7.595043 -0 17.93456 -0 8.178659 -0.1441845 11.59152 -3.457235 -4.547532 9.43419 -1.50219 15.89445 -6.548876 -2.899163 15.33864 6.746787 14.79545 -7.970427 -6.974306 14.00826 -22.11132 12.99859 74.1536 37.77939 -12.34437 -0 0 30.86289 -16.63315 5.450302 10.219 9.090717 -27.54343 -9.621153 -88.45112 0.07381438 28.20486 0 0 -19.7441 13.64319 -1.547396 0.08061759
-1812.177 90.65956 1684.867 -5.291895 -1.999274 -128.3785 -1.760156 -8.155112 -0.711571 -0 31.99175 -0 -15.20309 -6.060496 2.683645 -5.348933 -7.043155 -7.595043 -0 17.93456 -0 8.178659 -0.1441845 11.59152 -3.457235 -4.547532 9.43419 -1.50219 15.89445 -6.548876 -2.899163 15.33864 6.746787 14.79545 -7.970427 -6.974306 14.00826 -22.11132 12.99859 74.1536 37.77939 -12.34437 -0 0 30.86289 -16.63315 5.450302 10.219 9.090717 -27.54343 -9.621153 -88.45112 0.07381438 28.20486 0 0 -19.7441 13.64319 -1.547396 0.08061759
-1817.846 90.68562 1682.555 -5.300961 -1.97505 -128.6399 -1.760156 -8.155112 -0.711571 -0 31.99175 -0 -15.20309 -6.060496 2.683645 -5.348933 -7.043155 -7.595043 -0 17.93456 -0 8.178659 -0.1441845 11.59152 -3.457235 -4.547532 9.43419 -1.50219 15.89445 -6.548876 -2.899163 15.33864 6.746787 14.79545 -7.970427 -6.974306 14.00826 -22.11132 12.99859 74.1536 37.77939 -12.34437 -0 0 30.86289 -16.63315 5.450302 10.219 9.090717 -27.54343 -9.621153 -88.45112 0.07381438 28.20486 0 0 -19.7441 13.64319 -1.547396 0.08061759
-1823.504 90.71169 1680.218 -5.309916 -1.950786 -128.9014 -1.760156 -8.155112 -0.711571 -0 31.99175 -0 -15.20309 -6.060496 2.683645 -5.348933 -7.043155 -7.595043 -0 17.93456 -0 8.178659 -0.1441845 11.59152 -3.457235 -4.547532 9.43419 -1.50219 15.89445 -6.548876 -2.899163 15.33864 6.746787 14.79545 -7.970427 -6.974306 14.00826 -22.11132 12.99859 74.1536 37.77939 -12.34437 -0 0 30.86289 -16.63315 5.450302 10.219 9.090717 -27.54343 -9.621153 -88.45112 0.07381438 28.20486 0 0 -19.7441 13.64319 -1.547396 0.0806176
-1829.152 90.73776 1677.854 -5.318761 -1.92648 -129.1628 -1.760156 -8.155112 -0.711571 -0 31.99175 -0 -15.20309 -6.060496 2.683645 -5.348933 -7.043155 -7.595043 -0 17.93456 -0 8.178659 -0.1441845 11.59152 -3.457235 -4.547532 9.43419 -1.50219 15.89445 -6.548876 -2.899163 15.33864 6.746787 14.79545 -7.970427 -6.974306 14.00826 -22.11132 12.99859 74.1536 37.77939 -12.34437 -0 0 30.86289 -16.63315 5.450302 10.219 9.090717 -27.54343 -9.621153 -88.45112 0.07381439 28.20486 0 0 -19.7441 13.64319 -1.547396 0.08061761
-1834.789 90.76383 1675.465 -5.327494 -1.902135 -129.4243 -1.760156 -8.155112 -0.711571 -0 31.99175 -0 -15.20309 -6.060496 2.683645 -5.348933 -7.043155 -7.595043 -0 17.93456 -0 8.178659 -0.1441845 11.59152 -3.457235 -4.547532 9.43419 -1.50219 15.89445 -6.548876 -2.899163 15.33864 6.746787 14.79545 -7.970427 -6.974306 14.00826 -22.11132 12.99859 74.1536 37.77939 -12.34437 -0 0 30.86289 -16.63315 5.450302 10.219 9.090717 -27.54343 -9.621153 -88.45112 0.07381439 28.20486 0 0 -19.7441 13.64319 -1.547396 0.08061763
-1840.415 90.7899 1673.05 -5.336116 -1.87775 -129.6857 -1.760156 -8.155112 -0.711571 -0 31.99175 -0 -15.20309 -6.060496 2.683645 -5.348933 -7.043155 -7.595043 -0 17.93456 -0 8.178659 -0.1441845 11.59152 -3.457235 -4.547532 9.43419 -1.50219 15.89445 -6.548876 -2.899163 15.33864 6.746787 14.79545 -7.970427 -6.974306 14.00826 -22.11132 12.99859 74.1536 37.77939 -12.34437 -0 0 30.86289 -16.63315 5.450302 10.219 9.090717 -27.54343 -9.621153 -88.45112 0.0738144 28.20486 0 0 -19.7441 13.64319 -1.547396 0.08061764
-1846.029 90.81597 1670.609 -5.344626 -1.853326 -129.9471 -1.760156 -8.155112 -0.711571 -0 31.99175 -0 -15.20309 -6.060496 2.683645 -5.348933 -7.043155 -7.595043 -0 17.93456 -0 8.178659 -0.1441844 11.59152 -3.457235 -4.547532 9.43419 -1.50219 15.89445 -6.548876 -2.899163 15.33864 6.746787 14.79545 -7.970427 -6.974306 14.00826 -22.11132 12.99859 74.1536 37.77939 -12.34437 -0 0 30.86289 -16.63315 5.450302 10.219 9.090717 -27.54343 -9.621153 -88.45112 0.0738144 28.20486 0 0 -19.7441 13.64319 -1.547396 0.08061766
-1851.633 90.84204 1668.142 -5.353025 -1.828863 -130.2085 -1.760156 -8.155112 -0.711571 -0 31.99175 -0 -15.20309 -6.060496 2.683645 -5.348933 -7.043155 -7.595043 -0 17.93456 -0 8.178659 -0.1441844 11.59152 -3.457235 -4.547532 9.43419 -1.50219 15.89445 -6.548876 -2.899163 15.33864 6.746787 14.79545 -7.970427 -6.974306 14.00826 -22.11132 12.99859 74.1536 37.77939 -12.34437 -0 0 30.86289 -16.63315 5.450302 10.219 9.090717 -27.54343 -9.621153 -88.45112 0.07381441 28.20486 0 0 -19.7441 13.64319 -1.547396 0.08061768
-1857.225 90.8681 1665.65 -5.361311 -1.804362 -130.4699 -1.760156 -8.155112 -0.711571 -0 31.99175 -0 -15.20309 -6.060496 2.683645 -5.348933 -7.043155 -7.595043 -0 17.93456 -0 8.178659 -0.1441844 11.59152 -3.457235 -4.547532 9.43419 -1.50219 15.89445 -6.548876 -2.899163 15.33864 6.746787 14.79545 -7.970427 -6.974306 14.00826 -22.11132 12.99859 74.1536 37.77939 -12.34437 -0 0 30.86289 -16.63315 5.450302 10.219 9.090717 -27.54343 -9.621153 -88.45112 0.07381442 28.20486 0 0 -19.7441 13.64319 -1.547396 0.08061769
-1862.806 90.89417 1663.132 -5.369486 -1.779824 -130.7313 -1.760156 -8.155112 -0.711571 -0 31.99175 -0 -15.20309 -6.060496 2.683645 -5.348933 -7.043155 -7.595043 -0 17.93456 -0 8.178659 -0.1441844 11.59152 -3.457235 -4.547532 9.43419 -1.50219 15.89445 -6.548876 -2.899163 15.33864 6.746787 14.79545 -7.970427 -6.974306 14.00826 -22.11132 12.99859 74.1536 37.77939 -12.34437 -0 0 30.86289 -16.63315 5.450302 10.219 9.090717 -27.54343 -9.621153 -88.45112 0.07381442 28.20486 0 0 -19.7441 13.64319 -1.547396 0.08061771
-1868.375 90.92024 1660.589 -5.377548 -1.755249 -130.9927 -1.760156 -8.155112 -0.711571 -0 31.99175 -0 -15.20309 -6.060496 2.683645 -5.348933 -7.043155 -7.595043 -0 17.93456 -0 8.178659 -0.1441844 11.59152 -3.457235 -4.547532 9.43419 -1.50219 15.89445 -6.548876 -2.899163 15.33864 6.746787 14.79545 -7.970427 -6.974306 14.00826 -22.11132 12.99859 74.1536 37.77939 -12.34437 -0 0 30.86289 -16.63315 5.450302 10.219 9.090717 -27.54343 -9.621153 -88.45112 0.07381443 28.20486 0 0 -19.7441 13.64319 -1.547396 0.08061772
-1873.932 90.94631 1658.02 -5.385499 -1.730637 -131.2541 -1.760156 -8.155112 -0.711571 -0 31.99175 -0 -15.20309 -6.060496 2.683645 -5.348933 -7.043155 -7.595043 -0 17.93456 -0 8.178659 -0.1441844 11.59152 -3.457235 -4.547532 9.43419 -1.50219 15.89445 -6.548876 -2.899163 15.33864 6.746787 14.79545 -7.970427 -6.974306 14.00826 -22.11132 12.99859 74.1536 37.77939 -12.34437 -0 0 30.86289 -16.63315 5.450302 10.219 9.090717 -27.54343 -9.621153 -88.45112 0.07381443 28.20486 0 0 -19.7441 13.64319 -1.547396 0.08061774
-1879.477 90.97238 1655.425 -5.393336 -1.705989 -131.5155 -1.760156 -8.155112 -0.711571 -0 31.99175 -0 -15.20309 -6.060496 2.683645 -5.348933 -7.043155 -7.595043 -0 17.93456 -0 8.178659 -0.1441844 11.59152 -3.457235 -4.547532 9.43419 -1.50219 15.89445 -6.548876 -2.899163 15.33864 6.746787 14.79545 -7.970427 -6.974306 14.00826 -22.11132 12.99859 74.1536 37.77939 -12.34437 -0 0 30.86289 -16.63315 5.450302 10.219 9.090717 -27.54343 -9.621153 -88.45112 0.07381444 28.20486 0 0 -19.7441 13.64319 -1.547396 0.08061775
-1885.011 90.99845 1652.806 -5.401061 -1.681306 -131.7769 -1.760156 -8.155112 -0.711571 -0 31.99175 -0 -15.20309 -6.060496 2.683645 -5.348933 -7.043155 -7.595043 -0 17.93456 -0 8.178659 -0.1441844 11.59152 -3.457235 -4.547532 9.43419 -1.50219 15.89445 -6.548876 -2.899163 15.33864 6.746787 14.79545 -7.970427 -6.974306 14.00826 -22.11132 12.99859 74.1536 37.77939 -12.34437 -0 0 30.86289 -16.63315 5.450302 10.219 9.090717 -27.54343 -9.621153 -88.45112 0.07381444 28.20486 0 0 -19.7441 13.64319 -1.547396 0.08061775
-1890.533 91.02451 1650.161 -5.408673 -1.656588 -132.0382 -1.760156 -8.155112 -0.711571 -0 31.99175 -0 -15.20309 -6.060496 2.683645 -5.348933 -7.043155 -7.595043 -0 17.93456 -0 8.178659 -0.1441844 11.59152 -3.457235 -4.547532 9.43419 -1.50219 15.89445 -6.548876 -2.899163 15.33864 6.746787 14.79545 -7.970427 -6.974306 14.00826 -22.11132 12.99859 74.1536 37.77939 -12.34437 -0 0 30.86289 -16.63315 5.450302 10.219 9.090717 -27.54343 -9.621153 -88.45112 0.07381444 28.20486 0 0 -19.7441 13.64319 -1.547396 0.08061775
-1896.042 91.05058 1647.491 -5.416172 -1.631835 -132.2996 -1.760156 -8.155112 -0.711571 -0 31.99175 -0 -15.20309 -6.060496 2.683645 -5.348933 -7.043155 -7.595043 -0 17.93456 -0 8.178659 -0.1441844 11.59152 -3.457235 -4.547532 9.43419 -1.50219 15.89445 -6.548876 -2.899163 15.33864 6.746787 14.79545 -7.970427 -6.974306 14.00826 -22.11132 12.99859 74.1536 37.77939 -12.34437 -0 0 30.86289 -16.63315 5.450302 10.219 9.090717 -27.54343 -9.621153 -88.45112 0.07381444 28.20486 0 0 -19.7441 13.64319 -1.547396 0.08061776
-1901.539 91.07665 1644.795 -5.423559 -1.607049 -132.5609 -1.760156 -8.155112 -0.711571 -0 31.99175 -0 -15.20309 -6.060496 2.683645 -5.348933 -7.043155 -7.595043 -0 17.93456 -0 8.178659 -0.1441844 11.59152 -3.457235 -4.547532 9.43419 -1.50219 15.89445 -6.548876 -2.899163 15.33864 6.746787 14.79545 -7.970427 -6.974306 14.00826 -22.11132 12.99859 74.1536 37.77939 -12.34437 -0 0 30.86289 -16.63315 5.450302 10.219 9.090717 -27.54343 -9.621153 -88.45112 0.07381444 28.20486 0 0 -19.7441 13.64319 -1.547396 0.08061775
